ffmpeg started on 2016-11-27 at 01:59:18
Report written to "Output/NVENCh264/results/ffmpeg/sintelllhq1500k.log"
Command line:
Tools/ffmpeg/ffmpeg -benchmark -y -i Input/y4m/sintel.y4m -c:v h264_nvenc -preset llhq -b:v 1500k -an Output/NVENCh264/encoded/sintelllhq1500k.mkv
ffmpeg version N-82227-gdb23fde Copyright (c) 2000-2016 the FFmpeg developers
  built with gcc 5.4.0 (Ubuntu 5.4.0-6ubuntu1~16.04.2) 20160609
  configuration: --prefix=/home/jaroslav/ffmpeg_build --pkg-config-flags=--static --extra-cflags=-I/home/jaroslav/ffmpeg_build/include --extra-ldflags=-L/home/jaroslav/ffmpeg_build/lib --bindir=/home/jaroslav/bin --enable-gpl --enable-libass --enable-libfdk-aac --enable-libfreetype --enable-libmp3lame --enable-libopus --enable-libtheora --enable-libvorbis --enable-libvpx --enable-libx264 --enable-libx265 --enable-nvenc --enable-libmfx --enable-libxvid --enable-libgsm --enable-libopencore-amrnb --enable-version3 --enable-nonfree
  libavutil      55. 35.100 / 55. 35.100
  libavcodec     57. 66.101 / 57. 66.101
  libavformat    57. 57.100 / 57. 57.100
  libavdevice    57.  2.100 / 57.  2.100
  libavfilter     6. 66.100 /  6. 66.100
  libswscale      4.  3.100 /  4.  3.100
  libswresample   2.  4.100 /  2.  4.100
  libpostproc    54.  2.100 / 54.  2.100
Input #0, yuv4mpegpipe, from 'Input/y4m/sintel.y4m':
  Duration: 00:00:20.83, start: 0.000000, bitrate: 2057307 kb/s
    Stream #0:0: Video: rawvideo (I420 / 0x30323449), yuv420p(progressive), 4096x1744, SAR 1:1 DAR 256:109, 24 fps, 24 tbr, 24 tbn, 24 tbc
[h264_nvenc @ 0x31451c0] The variable bitrate rate-control requires the 'qmin' and/or 'qmax' option set.
Output #0, matroska, to 'Output/NVENCh264/encoded/sintelllhq1500k.mkv':
  Metadata:
    encoder         : Lavf57.57.100
    Stream #0:0: Video: h264 (h264_nvenc) (Main) (H264 / 0x34363248), yuv420p, 4096x1744 [SAR 1:1 DAR 256:109], q=-1--1, 1500 kb/s, 24 fps, 1k tbn, 24 tbc
    Metadata:
      encoder         : Lavc57.66.101 h264_nvenc
    Side data:
      cpb: bitrate max/min/avg: 0/0/1500000 buffer size: 3000000 vbv_delay: -1
Stream mapping:
  Stream #0:0 -> #0:0 (rawvideo (native) -> h264 (h264_nvenc))
Press [q] to stop, [?] for help
frame=   19 fps=0.0 q=0.0 size=       0kB time=00:00:00.00 bitrate=N/A speed=   0x    frame=   40 fps= 39 q=49.0 size=       1kB time=00:00:00.37 bitrate=  15.9kbits/s speed=0.365x    frame=   61 fps= 40 q=49.0 size=       1kB time=00:00:01.25 bitrate=   4.8kbits/s speed=0.813x    frame=   82 fps= 40 q=49.0 size=       1kB time=00:00:02.12 bitrate=   2.8kbits/s speed=1.03x    frame=  103 fps= 40 q=49.0 size=       1kB time=00:00:03.00 bitrate=   2.0kbits/s speed=1.17x    frame=  124 fps= 40 q=49.0 size=       1kB time=00:00:03.87 bitrate=   1.5kbits/s speed=1.26x    frame=  145 fps= 40 q=49.0 size=       1kB time=00:00:04.75 bitrate=   1.3kbits/s speed=1.32x    frame=  148 fps= 20 q=49.0 size=    1349kB time=00:00:04.87 bitrate=2266.9kbits/s speed=0.657x    frame=  149 fps= 14 q=49.0 size=    1349kB time=00:00:04.91 bitrate=2247.6kbits/s speed=0.456x    frame=  150 fps= 11 q=49.0 size=    1349kB time=00:00:04.95 bitrate=2229.0kbits/s speed=0.357x    frame=  155 fps= 11 q=49.0 size=    1349kB time=00:00:05.16 bitrate=2138.8kbits/s speed=0.359x    frame=  176 fps= 12 q=49.0 size=    1349kB time=00:00:06.04 bitrate=1829.1kbits/s speed=0.405x    frame=  197 fps= 13 q=49.0 size=    1349kB time=00:00:06.91 bitrate=1597.8kbits/s speed=0.449x    frame=  218 fps= 14 q=49.0 size=    1349kB time=00:00:07.79 bitrate=1418.4kbits/s speed=0.489x    frame=  239 fps= 15 q=49.0 size=    1349kB time=00:00:08.66 bitrate=1275.2kbits/s speed=0.527x    frame=  260 fps= 15 q=49.0 size=    1349kB time=00:00:09.54 bitrate=1158.3kbits/s speed=0.563x    frame=  281 fps= 16 q=49.0 size=    2599kB time=00:00:10.41 bitrate=2043.9kbits/s speed=0.596x    frame=  302 fps= 17 q=49.0 size=    2812kB time=00:00:11.29 bitrate=2039.5kbits/s speed=0.628x    frame=  323 fps= 17 q=49.0 size=    2812kB time=00:00:12.16 bitrate=1892.9kbits/s speed=0.658x    frame=  344 fps= 18 q=49.0 size=    2812kB time=00:00:13.04 bitrate=1765.9kbits/s speed=0.686x    frame=  365 fps= 19 q=49.0 size=    2812kB time=00:00:13.91 bitrate=1654.9kbits/s speed=0.713x    frame=  386 fps= 19 q=49.0 size=    2812kB time=00:00:14.79 bitrate=1557.0kbits/s speed=0.739x    frame=  407 fps= 20 q=49.0 size=    2812kB time=00:00:15.66 bitrate=1470.0kbits/s speed=0.763x    frame=  428 fps= 20 q=49.0 size=    3425kB time=00:00:16.54 bitrate=1695.8kbits/s speed=0.786x    frame=  440 fps= 20 q=49.0 size=    3425kB time=00:00:17.04 bitrate=1646.0kbits/s speed=0.788x    frame=  461 fps= 21 q=49.0 size=    3616kB time=00:00:17.91 bitrate=1653.0kbits/s speed=0.809x    frame=  482 fps= 21 q=49.0 size=    3616kB time=00:00:18.79 bitrate=1576.0kbits/s speed=0.829x    frame=  500 fps= 21 q=49.0 size=    3616kB time=00:00:19.54 bitrate=1515.6kbits/s speed=0.832x    frame=  500 fps= 21 q=49.0 Lsize=    4057kB time=00:00:20.79 bitrate=1598.4kbits/s speed=0.884x    
video:4053kB audio:0kB subtitle:0kB other streams:0kB global headers:0kB muxing overhead: 0.107518%
bench: utime=0.948s
bench: maxrss=1188152kB
